<svg width="28" height="29" viewBox="0 0 28 29" fill="none" xmlns="http://www.w3.org/2000/svg">
<path d="M14 2.83398C17.1698 2.83398 17.5653 2.84565 18.809 2.90398C20.0515 2.96232 20.8973 3.15715 21.6417 3.44648C22.4117 3.74282 23.0603 4.14415 23.709 4.79165C24.3022 5.37486 24.7613 6.08034 25.0542 6.85898C25.3423 7.60215 25.5383 8.44915 25.5967 9.69165C25.6515 10.9353 25.6667 11.3308 25.6667 14.5007C25.6667 17.6705 25.655 18.066 25.5967 19.3097C25.5383 20.5522 25.3423 21.398 25.0542 22.1423C24.7621 22.9214 24.303 23.627 23.709 24.2097C23.1256 24.8027 22.4202 25.2617 21.6417 25.5548C20.8985 25.843 20.0515 26.039 18.809 26.0973C17.5653 26.1522 17.1698 26.1673 14 26.1673C10.8302 26.1673 10.4347 26.1557 9.191 26.0973C7.9485 26.039 7.10267 25.843 6.35834 25.5548C5.57938 25.2625 4.87378 24.8034 4.291 24.2097C3.69764 23.6265 3.23859 22.921 2.94584 22.1423C2.6565 21.3992 2.46167 20.5522 2.40334 19.3097C2.3485 18.066 2.33334 17.6705 2.33334 14.5007C2.33334 11.3308 2.345 10.9353 2.40334 9.69165C2.46167 8.44798 2.6565 7.60332 2.94584 6.85898C3.23778 6.07986 3.69694 5.37419 4.291 4.79165C4.87395 4.19809 5.5795 3.739 6.35834 3.44648C7.10267 3.15715 7.94734 2.96232 9.191 2.90398C10.4347 2.84915 10.8302 2.83398 14 2.83398ZM14 8.66732C12.4529 8.66732 10.9692 9.2819 9.87521 10.3759C8.78125 11.4698 8.16667 12.9536 8.16667 14.5007C8.16667 16.0477 8.78125 17.5315 9.87521 18.6254C10.9692 19.7194 12.4529 20.334 14 20.334C15.5471 20.334 17.0308 19.7194 18.1248 18.6254C19.2188 17.5315 19.8333 16.0477 19.8333 14.5007C19.8333 12.9536 19.2188 11.4698 18.1248 10.3759C17.0308 9.2819 15.5471 8.66732 14 8.66732ZM21.5833 8.37565C21.5833 7.98888 21.4297 7.61794 21.1562 7.34445C20.8827 7.07096 20.5118 6.91732 20.125 6.91732C19.7382 6.91732 19.3673 7.07096 19.0938 7.34445C18.8203 7.61794 18.6667 7.98888 18.6667 8.37565C18.6667 8.76243 18.8203 9.13336 19.0938 9.40685C19.3673 9.68034 19.7382 9.83398 20.125 9.83398C20.5118 9.83398 20.8827 9.68034 21.1562 9.40685C21.4297 9.13336 21.5833 8.76243 21.5833 8.37565ZM14 11.0007C14.9283 11.0007 15.8185 11.3694 16.4749 12.0258C17.1313 12.6822 17.5 13.5724 17.5 14.5007C17.5 15.4289 17.1313 16.3191 16.4749 16.9755C15.8185 17.6319 14.9283 18.0007 14 18.0007C13.0717 18.0007 12.1815 17.6319 11.5251 16.9755C10.8688 16.3191 10.5 15.4289 10.5 14.5007C10.5 13.5724 10.8688 12.6822 11.5251 12.0258C12.1815 11.3694 13.0717 11.0007 14 11.0007Z" fill="#888888"/>
</svg>
