<svg width="28" height="29" viewBox="0 0 28 29" fill="none" xmlns="http://www.w3.org/2000/svg">
<path d="M25.8557 7.09919C24.965 7.49317 24.0205 7.75191 23.0533 7.86686C24.0727 7.2572 24.8357 6.29771 25.2 5.16719C24.2433 5.73652 23.1945 6.13552 22.1013 6.35136C21.3671 5.5657 20.3938 5.04465 19.3328 4.86921C18.2718 4.69377 17.1826 4.87376 16.2345 5.38122C15.2864 5.88868 14.5325 6.69516 14.09 7.67528C13.6475 8.65541 13.5412 9.75427 13.7877 10.801C11.8476 10.7038 9.94973 10.1996 8.21718 9.3213C6.48462 8.44296 4.95616 7.21008 3.73101 5.70269C3.29735 6.44755 3.06946 7.29429 3.07067 8.15619C3.07067 9.84786 3.93167 11.3424 5.24067 12.2174C4.46602 12.193 3.70841 11.9838 3.03101 11.6072V11.6679C3.03124 12.7945 3.42111 13.8864 4.1345 14.7584C4.84789 15.6304 5.8409 16.2289 6.94517 16.4524C6.22606 16.6472 5.47203 16.676 4.74017 16.5364C5.05152 17.5061 5.65835 18.3543 6.4757 18.962C7.29305 19.5697 8.27999 19.9066 9.29834 19.9255C8.28624 20.7204 7.12738 21.308 5.88804 21.6547C4.64869 22.0014 3.35316 22.1005 2.07551 21.9462C4.30582 23.3805 6.90212 24.142 9.55384 24.1395C18.529 24.1395 23.4372 16.7044 23.4372 10.2562C23.4372 10.0462 23.4313 9.83386 23.422 9.62619C24.3773 8.93572 25.2019 8.08038 25.8568 7.10036L25.8557 7.09919Z" fill="#888888"/>
</svg>
